<svg width="80" height="80" viewBox="0 0 80 80" fill="none" xmlns="http://www.w3.org/2000/svg">
<mask id="mask0_20_370" style="mask-type:luminance" maskUnits="userSpaceOnUse" x="0" y="0" width="80" height="80">
<path d="M80 0H0V80H80V0Z" fill="white"/>
</mask>
<g mask="url(#mask0_20_370)">
<path d="M50.1686 40.686L48.9564 38.7644L49.6744 36.6076C49.7725 36.3146 49.6505 35.991 49.3831 35.8376L47.4228 34.6996L47.0639 32.4543C47.0131 32.1476 46.7558 31.9194 46.451 31.9057L44.1894 31.8171L42.8351 29.9977C42.6489 29.749 42.3171 29.6673 42.0394 29.8002L39.9979 30.7746L37.9563 29.7967C37.6787 29.6639 37.3469 29.7456 37.1606 29.9943L35.8064 31.8138L33.5481 31.9024C33.24 31.916 32.9827 32.1442 32.9353 32.4509L32.5764 34.6962L30.616 35.8342C30.3486 35.9876 30.2267 36.3112 30.3249 36.6042L31.0427 38.7609L29.8339 40.6826C29.668 40.9449 29.7121 41.2857 29.9322 41.5037L31.5641 43.0778L31.3812 45.3436C31.3575 45.6536 31.5505 45.9365 31.8451 46.025L34.0153 46.6553L34.899 48.7508C35.0208 49.0369 35.3222 49.2005 35.6235 49.1358L37.8378 48.6791L39.5848 50.1203C39.7033 50.2157 39.8489 50.2669 39.9944 50.2669C40.14 50.2669 40.2856 50.2157 40.4042 50.1203L42.1512 48.6791L44.3655 49.1358C44.6668 49.2005 44.9715 49.0369 45.09 48.7508L45.9737 46.6553L48.1439 46.025C48.4385 45.9399 48.6349 45.6536 48.6078 45.3436L48.425 43.0778L50.0568 41.5037C50.2906 41.2891 50.3311 40.9484 50.1686 40.686ZM44.6803 37.548L40.1435 44.3861C39.9708 44.6416 39.7068 44.812 39.4426 44.812C39.1785 44.812 38.884 44.6621 38.6978 44.4747L35.3696 41.071C35.1428 40.8393 35.1428 40.4612 35.3696 40.2294L36.1924 39.3879C36.4192 39.1596 36.7883 39.1596 37.015 39.3879L39.1819 41.6025L42.7538 36.2124C42.9333 35.9398 43.299 35.8717 43.563 36.0556L44.528 36.7235C44.792 36.9075 44.8598 37.2788 44.6803 37.548Z" fill="#1CE371"/>
</g>
</svg>
